<?xml version="1.0" encoding="utf-8"?>
<!-- Generator: Adobe Illustrator 19.1.0, SVG Export Plug-In . SVG Version: 6.00 Build 0)  -->
<svg version="1.1" id="Layer_1" xmlns="http://www.w3.org/2000/svg" xmlns:xlink="http://www.w3.org/1999/xlink" x="0px" y="0px"
	 viewBox="-345 257 100 100" style="enable-background:new -345 257 100 100;" xml:space="preserve">
<style type="text/css">
	.st0{fill:#FFFFFF;}
</style>
<g id="Layer_5">
</g>
<g id="Layer_1_1_">
</g>
<g id="Layer_2">
</g>
<g id="Layer_3">
</g>
<g id="Layer_4">
	<g>
		<path class="st0" d="M-271.3,330.3h-49.5c-1.5,0-2.7-1.2-2.7-2.7s1.2-2.7,2.7-2.7h49.5c1.5,0,2.7,1.2,2.7,2.7
			S-269.8,330.3-271.3,330.3z M-320.8,325.9c-0.9,0-1.7,0.8-1.7,1.7s0.8,1.7,1.7,1.7h49.5c0.9,0,1.7-0.8,1.7-1.7s-0.8-1.7-1.7-1.7
			H-320.8z"/>
	</g>
	<g>
		<path class="st0" d="M-283.7,313.1c-0.7,0-1.4-0.1-2.1-0.2c-0.3,0-0.5-0.3-0.4-0.6c0-0.3,0.3-0.5,0.6-0.4c3.1,0.6,7-0.4,9.9-2.4
			c1.9-1.3,3.2-3,3.8-4.9c1.1-3.5,0.9-6.7-0.6-9c-1-1.5-2.6-2.4-4.4-2.6c-1.3-0.1-3.7,0.3-5.3,1c-3.4,1.5-6.4,4-7.8,6.6
			c-0.1,0.2-0.4,0.3-0.7,0.2c-0.2-0.1-0.3-0.4-0.2-0.7c1.6-2.8,4.6-5.4,8.3-7.1c1.8-0.8,4.4-1.2,5.8-1.1c2.1,0.1,3.9,1.2,5.1,3
			c1.7,2.5,2,6.1,0.7,9.9c-0.7,2.1-2.1,4-4.2,5.5C-277.6,312.1-280.8,313.1-283.7,313.1z"/>
	</g>
	<g>
		<path class="st0" d="M-270.7,297.2l-0.6-0.8c1.2-0.8,5.2-3.5,6.6-3.1l0.3,0.1c0.9,0.3,2.2,0.7,2.9,0.3c0.2-0.1,0.4-0.4,0.4-0.7
			c0.1-0.7-0.4-1-1.6-1.4c-0.7-0.3-1.4-0.6-1.8-1.1c-0.2-0.2-0.2-0.6-0.3-1.3c-0.1-0.9-0.3-2.3-0.9-2.7c-0.1-0.1-0.3-0.1-0.6,0
			c-1.1,0.3-0.9,1.6-0.7,3c0.1,0.6,0.2,1,0.1,1.4c-0.3,0.8-3.3,2.8-5.1,4l-0.5-0.8c2.1-1.3,4.5-3,4.7-3.5c0-0.1-0.1-0.5-0.1-0.9
			c-0.2-1.3-0.6-3.5,1.4-4.1c0.5-0.2,1-0.1,1.5,0.1c1,0.6,1.2,2.2,1.4,3.4c0,0.3,0.1,0.8,0.2,0.9c0.2,0.3,0.8,0.5,1.4,0.8
			c1,0.4,2.5,1,2.2,2.5c-0.1,0.6-0.4,1.1-0.9,1.4c-1,0.6-2.6,0.1-3.7-0.2l-0.3-0.1C-265.6,294-268.4,295.6-270.7,297.2z"/>
	</g>
	<g>
		<path class="st0" d="M-296.2,323.2c-4.1,0-8.4-0.8-12.3-2.4c-4.4-1.8-8.6-6.2-10.6-11.2c-1.4-3.4-1.6-6.5-0.6-8.8
			c1.8-4.3,10.1-12.8,24.1-11.9c5,0.3,9.5,1.8,13.2,4.4l-0.6,0.8c-3.6-2.5-7.9-3.9-12.7-4.2c-13.5-0.9-21.4,7.2-23.1,11.3
			c-0.9,2.1-0.7,4.9,0.6,8c1.9,4.7,5.9,8.9,10.1,10.6c8,3.3,17.8,3,24.4-0.6c4.1-2.2,6.8-5.5,7.8-9.4l1,0.3
			c-0.8,2.9-2.9,7.1-8.3,10.1C-287,322.2-291.5,323.2-296.2,323.2z"/>
	</g>
	<g>
		
			<ellipse transform="matrix(-0.5056 -0.8628 0.8628 -0.5056 -724.0823 185.4794)" class="st0" cx="-308.9" cy="300.2" rx="0.3" ry="0.7"/>
	</g>
	<g>
		
			<ellipse transform="matrix(-0.5056 -0.8628 0.8628 -0.5056 -713.8943 184.7088)" class="st0" cx="-304" cy="296.9" rx="0.3" ry="0.7"/>
	</g>
	<g>
		
			<ellipse transform="matrix(-0.5056 -0.8628 0.8628 -0.5056 -711.702 190.3673)" class="st0" cx="-301.3" cy="299.1" rx="0.3" ry="0.7"/>
	</g>
</g>
<g id="Layer_7">
</g>
<g id="Layer_6">
</g>
</svg>
