<?xml version="1.0" encoding="utf-8"?>
<!-- Generator: Adobe Illustrator 19.1.0, SVG Export Plug-In . SVG Version: 6.00 Build 0)  -->
<svg version="1.1" id="Layer_1" xmlns="http://www.w3.org/2000/svg" xmlns:xlink="http://www.w3.org/1999/xlink" x="0px" y="0px"
	 viewBox="-345 257 100 100" style="enable-background:new -345 257 100 100;" xml:space="preserve">
<style type="text/css">
	.st0{fill:#FFFFFF;}
</style>
<g id="Layer_5">
</g>
<g id="Layer_1_1_">
</g>
<g id="Layer_2">
</g>
<g id="Layer_3">
</g>
<g id="Layer_4">
	<g>
		<path class="st0" d="M-260.6,323.8C-260.7,323.8-260.7,323.8-260.6,323.8h-38.9c-0.2,0-0.4-0.1-0.4-0.3c-0.1-0.2-0.1-0.4,0-0.5
			l9.6-12.3l-10.5,0.8c-0.2,0-0.4-0.1-0.5-0.3c-0.1-0.2-0.1-0.4,0.1-0.6l13.6-14.6h-7.1c-0.2,0-0.4-0.1-0.4-0.3
			c-0.1-0.2-0.1-0.4,0.1-0.5l15.4-19.9c0.1-0.1,0.3-0.2,0.4-0.2c0.2,0,0.3,0.1,0.4,0.2l13.2,19.9c0.1,0.2,0.1,0.4,0,0.5
			c-0.1,0.1-0.3,0.3-0.5,0.3h-6.7l11.9,13.7c0.1,0.2,0.2,0.4,0.1,0.6c-0.1,0.2-0.3,0.3-0.5,0.3l-9.7-0.8l10.6,13.1
			c0.1,0.1,0.2,0.2,0.2,0.4C-260.1,323.5-260.4,323.8-260.6,323.8z M-298.4,322.8h36.7l-10.8-13.3c-0.1-0.2-0.1-0.4-0.1-0.5
			c0.1-0.2,0.3-0.3,0.5-0.3l9.6,0.8l-11.7-13.6c-0.1-0.1-0.2-0.4-0.1-0.5c0.1-0.2,0.3-0.3,0.5-0.3h6.8l-12.3-18.6l-14.3,18.5h7.2
			c0.2,0,0.4,0.1,0.5,0.3c0.1,0.2,0,0.4-0.1,0.5l-13.6,14.6l10.4-0.8c0.2,0,0.4,0.1,0.5,0.3c0.1,0.2,0.1,0.4,0,0.5L-298.4,322.8z"/>
	</g>
	<g>
		<path class="st0" d="M-276.9,340.9h-6.3c-0.3,0-0.5-0.2-0.5-0.5v-17.1c0-0.3,0.2-0.5,0.5-0.5h6.3c0.3,0,0.5,0.2,0.5,0.5v17.1
			C-276.4,340.6-276.6,340.9-276.9,340.9z M-282.7,339.9h5.3v-16.1h-5.3V339.9z"/>
	</g>
	<g>
		<path class="st0" d="M-277.5,288.9c-1.1,0-2.3-0.4-3.6-1.7c-2.8-2.8-7.2,0.9-7.3,0.9c-0.2,0.2-0.5,0.1-0.7-0.1
			c-0.2-0.2-0.1-0.5,0.1-0.7c1.8-1.5,5.9-3.6,8.6-0.9c2.5,2.5,4.6,1.1,6.5,0c0.2-0.1,0.5-0.3,0.7-0.4c0.2-0.1,0.5-0.1,0.7,0.2
			c0.1,0.2,0.1,0.5-0.2,0.7c-0.2,0.1-0.4,0.3-0.6,0.4C-274.5,288-275.9,288.9-277.5,288.9z"/>
	</g>
	<g>
		<path class="st0" d="M-295.8,319c-0.1,0-0.3-0.1-0.4-0.2l-4.5-5.5c-0.1-0.2-0.1-0.4-0.1-0.5c0.1-0.2,0.3-0.3,0.5-0.3l8.1,0.6
			c0.3,0,0.5,0.3,0.5,0.5c0,0.3-0.3,0.5-0.5,0.5l-6.9-0.5l3.7,4.6c0.2,0.2,0.1,0.5-0.1,0.7C-295.5,319-295.7,319-295.8,319z"/>
	</g>
	<g>
		<path class="st0" d="M-291.2,313.2c-0.1,0-0.3-0.1-0.4-0.2l-1.9-2.1c-0.2-0.2-0.2-0.5,0.1-0.7c0.2-0.2,0.5-0.2,0.7,0.1l1.9,2.1
			c0.2,0.2,0.2,0.5-0.1,0.7C-291,313.2-291.1,313.2-291.2,313.2z"/>
	</g>
	<g>
		<path class="st0" d="M-289.7,326.5h-35.7c-0.2,0-0.4-0.1-0.4-0.3c-0.1-0.2-0.1-0.4,0.1-0.5l8.7-11.3l-9.6,0.7
			c-0.2,0-0.4-0.1-0.5-0.3c-0.1-0.2-0.1-0.4,0.1-0.6l12.4-13.2h-6.4c-0.2,0-0.4-0.1-0.4-0.3c-0.1-0.2-0.1-0.4,0.1-0.5l14.2-18.3
			c0.1-0.1,0.3-0.2,0.4-0.2c0.2,0,0.3,0.1,0.4,0.2l12.1,18.3c0.1,0.2,0.1,0.4,0,0.5c-0.1,0.1-0.3,0.3-0.5,0.3h-6.1l4.4,5
			c0.2,0.2,0.2,0.5-0.1,0.7c-0.3,0.2-0.5,0.2-0.7-0.1l-5.1-5.8c-0.1-0.1-0.2-0.4-0.1-0.5c0.1-0.2,0.3-0.3,0.5-0.3h6.2l-11.1-17
			l-13.2,17h6.5c0.2,0,0.4,0.1,0.5,0.3c0.1,0.2,0,0.4-0.1,0.5l-12.3,13.3l9.5-0.7c0.2,0,0.4,0.1,0.5,0.3c0.1,0.2,0.1,0.4,0,0.5
			l-8.9,11.3h33.6l-1.5-1.9c-0.2-0.2-0.1-0.5,0.1-0.7c0.2-0.2,0.5-0.1,0.7,0.1l2.2,2.7c0.1,0.1,0.1,0.4,0.1,0.5
			C-289.1,326.3-289.5,326.5-289.7,326.5z"/>
	</g>
	<g>
		<path class="st0" d="M-304.7,340.9h-5.8c-0.3,0-0.5-0.2-0.5-0.5V326c0-0.3,0.2-0.5,0.5-0.5h5.8c0.3,0,0.5,0.2,0.5,0.5v14.4
			C-304.2,340.6-304.4,340.9-304.7,340.9z M-310,339.9h4.8v-13.4h-4.8V339.9z"/>
	</g>
	<g>
		<path class="st0" d="M-305.2,294.4c-1,0-2.2-0.4-3.3-1.6c-2.5-2.5-6.6,0.8-6.6,0.9c-0.2,0.2-0.5,0.1-0.7-0.1
			c-0.2-0.2-0.1-0.5,0.1-0.7c1.6-1.4,5.4-3.3,8-0.8c2.3,2.3,4.2,1,5.9,0c0.2-0.1,0.4-0.3,0.6-0.4c0.2-0.1,0.5-0.1,0.7,0.2
			c0.1,0.2,0.1,0.5-0.2,0.7c-0.2,0.1-0.4,0.2-0.6,0.4C-302.4,293.6-303.7,294.4-305.2,294.4z"/>
	</g>
	<g>
		<path class="st0" d="M-286.7,304.9c-0.1,0-0.2,0-0.3-0.1c-0.2-0.2-0.2-0.5,0-0.7l2-2.3c0.2-0.2,0.5-0.2,0.7,0
			c0.2,0.2,0.2,0.5,0,0.7l-2,2.3C-286.4,304.8-286.5,304.9-286.7,304.9z"/>
	</g>
	<g>
		<path class="st0" d="M-284.5,304.9c-0.1,0-0.2,0-0.3-0.1c-0.2-0.2-0.2-0.5,0-0.7l2-2.3c0.2-0.2,0.5-0.2,0.7,0
			c0.2,0.2,0.2,0.5,0,0.7l-2,2.3C-284.2,304.8-284.3,304.9-284.5,304.9z"/>
	</g>
	<g>
		<path class="st0" d="M-309.7,322.6c-0.1,0-0.2,0-0.3-0.1c-0.2-0.2-0.2-0.5,0-0.7l2-2.3c0.2-0.2,0.5-0.2,0.7,0
			c0.2,0.2,0.2,0.5,0,0.7l-2,2.3C-309.4,322.5-309.6,322.6-309.7,322.6z"/>
	</g>
	<g>
		<path class="st0" d="M-307.5,322.6c-0.1,0-0.2,0-0.3-0.1c-0.2-0.2-0.2-0.5,0-0.7l2-2.3c0.2-0.2,0.5-0.2,0.7,0
			c0.2,0.2,0.2,0.5,0,0.7l-2,2.3C-307.2,322.5-307.4,322.6-307.5,322.6z"/>
	</g>
	<g>
		<path class="st0" d="M-309.7,302.2c-0.1,0-0.2,0-0.3-0.1c-0.2-0.2-0.2-0.5,0-0.7l2-2.3c0.2-0.2,0.5-0.2,0.7,0
			c0.2,0.2,0.2,0.5,0,0.7l-2,2.3C-309.4,302.1-309.6,302.2-309.7,302.2z"/>
	</g>
	<g>
		<path class="st0" d="M-307.5,302.2c-0.1,0-0.2,0-0.3-0.1c-0.2-0.2-0.2-0.5,0-0.7l2-2.3c0.2-0.2,0.5-0.2,0.7,0
			c0.2,0.2,0.2,0.5,0,0.7l-2,2.3C-307.2,302.1-307.4,302.2-307.5,302.2z"/>
	</g>
	<g>
		<path class="st0" d="M-279,319.2c-0.1,0-0.2,0-0.3-0.1c-0.2-0.2-0.2-0.5,0-0.7l2-2.3c0.2-0.2,0.5-0.2,0.7,0c0.2,0.2,0.2,0.5,0,0.7
			l-2,2.3C-278.7,319.1-278.8,319.2-279,319.2z"/>
	</g>
	<g>
		<path class="st0" d="M-276.8,319.2c-0.1,0-0.2,0-0.3-0.1c-0.2-0.2-0.2-0.5,0-0.7l2-2.3c0.2-0.2,0.5-0.2,0.7,0
			c0.2,0.2,0.2,0.5,0,0.7l-2,2.3C-276.5,319.1-276.6,319.2-276.8,319.2z"/>
	</g>
</g>
<g id="Layer_7">
</g>
<g id="Layer_6">
</g>
</svg>
