<?xml version="1.0" encoding="utf-8"?>
<!-- Generator: Adobe Illustrator 19.1.0, SVG Export Plug-In . SVG Version: 6.00 Build 0)  -->
<svg version="1.1" id="Layer_1" xmlns="http://www.w3.org/2000/svg" xmlns:xlink="http://www.w3.org/1999/xlink" x="0px" y="0px"
	 viewBox="-345 257 100 100" style="enable-background:new -345 257 100 100;" xml:space="preserve">
<style type="text/css">
	.st0{fill:#FFFFFF;}
</style>
<g id="Layer_5">
</g>
<g id="Layer_1_1_">
</g>
<g id="Layer_2">
</g>
<g id="Layer_3">
</g>
<g id="Layer_4">
	<g>
		<path class="st0" d="M-261.2,331.2c-0.2,0-0.3,0-0.4-0.1c-0.1-0.2-9.4-15-28.3-15l0,0c-24.5,0-29.6,13.6-29.6,13.7
			c-0.2,0.2-0.5,0.3-0.7,0.2c-0.3-0.1-0.4-0.4-0.3-0.7c0.1-0.2,1.3-3.6,5.8-7.2c4-3.3,11.6-7.1,24.7-7.1l0,0
			c19.5,0,29.1,15.4,29.2,15.5c0.1,0.2,0.1,0.5-0.2,0.6C-261,331.2-261.1,331.2-261.2,331.2z"/>
	</g>
	<g>
		
			<ellipse transform="matrix(-0.4131 -0.9107 0.9107 -0.4131 -729.1421 178.9366)" class="st0" cx="-306.9" cy="324.4" rx="0.4" ry="0.5"/>
	</g>
	<g>
		
			<ellipse transform="matrix(-0.1064 -0.9943 0.9943 -0.1064 -640.3874 62.0764)" class="st0" cx="-292.3" cy="318.8" rx="0.4" ry="0.5"/>
	</g>
	<g>
		
			<ellipse transform="matrix(-0.1064 -0.9943 0.9943 -0.1064 -627.1886 86.5545)" class="st0" cx="-274.7" cy="325.1" rx="0.4" ry="0.5"/>
	</g>
	<g>
		
			<ellipse transform="matrix(-0.4015 -0.9159 0.9159 -0.4015 -711.425 187.7117)" class="st0" cx="-294.4" cy="326.3" rx="0.3" ry="0.4"/>
	</g>
	<g>
		
			<ellipse transform="matrix(-0.1064 -0.9943 0.9943 -0.1064 -637.3254 82.2426)" class="st0" cx="-281.7" cy="327.5" rx="0.3" ry="0.4"/>
	</g>
	<g>
		<ellipse class="st0" cx="-281.9" cy="320.5" rx="0.2" ry="0.2"/>
	</g>
	<g>
		<path class="st0" d="M-276.6,313.7L-276.6,313.7l-23.1-0.9c-0.5,0-1-0.3-1.2-0.7l-5.7-10c-0.4-0.7-0.8-2.5,0.7-3.4
			c0.9-0.5,2.2,0,2.8,1.2c0.4,0.7,4.9,8.6,5,8.7s0.2,0.2,0.4,0.2l21.2,0.8c0.4,0,0.8,0.3,1.1,0.6c0.4,0.5,0.6,1.3,0.5,2
			C-275,312.9-275.7,313.7-276.6,313.7z M-305,299.4c-0.1,0-0.2,0-0.3,0.1c-1,0.6-0.5,1.8-0.4,2.1l5.7,10c0.1,0.1,0.2,0.2,0.4,0.2
			l23,0.9v0.5v-0.5c0.3,0,0.7-0.4,0.7-0.7c0.1-0.6-0.1-1-0.3-1.2c-0.2-0.2-0.3-0.3-0.4-0.3l-21.2-0.8c-0.5,0-1-0.3-1.2-0.7
			c-0.2-0.3-4.6-8-5-8.7C-304.2,299.7-304.7,299.4-305,299.4z"/>
	</g>
	<g>
		
			<rect x="-298.6" y="313" transform="matrix(-8.294325e-02 -0.9966 0.9966 -8.294325e-02 -634.5272 44.1656)" class="st0" width="3.3" height="2"/>
	</g>
	<g>
		
			<rect x="-282.5" y="313.8" transform="matrix(-9.008476e-02 -0.9959 0.9959 -9.008476e-02 -619.5882 63.6147)" class="st0" width="3.5" height="2"/>
	</g>
	<g>
		<path class="st0" d="M-326.4,303.5c-0.2,0-0.5,0-0.7-0.2c-0.8-0.7-2.1-5.1-1.3-9.5c0.6-3.2,2.5-7.6,8.4-10.1
			c2.2-0.9,4.5-1.4,6.6-1.4c8.4,0,13.8,7,14.3,9.1c0.1,0.2,0,0.5-0.2,0.8C-301.3,294.8-323.2,303.5-326.4,303.5z M-326.5,302.5
			C-326.4,302.5-326.4,302.5-326.5,302.5c3.4,0,25.2-9.1,26.4-10.9c-0.6-2.1-5.6-8.3-13.3-8.3c-2,0-4.2,0.4-6.2,1.3
			c-4.3,1.8-6.9,4.9-7.8,9.2C-328.2,298-326.9,301.9-326.5,302.5z"/>
	</g>
	<g>
		<path class="st0" d="M-319.3,284.5c-0.4,0-0.8-0.2-0.9-0.6l-0.8-1.9c-0.2-0.5,0-1.1,0.5-1.3c0.5-0.2,1.1,0,1.3,0.5l0.8,1.9
			c0.2,0.5,0,1.1-0.5,1.3C-319,284.5-319.1,284.5-319.3,284.5z"/>
	</g>
	<g>
		<path class="st0" d="M-320.1,301.6c-0.2,0-0.4-0.1-0.5-0.4c-0.1-0.5-3.6-12,1-17.7c0.2-0.2,0.5-0.2,0.7-0.1
			c0.2,0.2,0.2,0.5,0.1,0.7c-4.2,5.4-0.9,16.8-0.8,16.9c0.1,0.3-0.1,0.5-0.3,0.6C-320,301.6-320.1,301.6-320.1,301.6z"/>
	</g>
	<g>
		<path class="st0" d="M-306.9,296.3c-0.2,0-0.4-0.1-0.5-0.3c0-0.1-4.3-10.1-11.7-11.7c-0.3-0.1-0.4-0.3-0.4-0.6
			c0.1-0.3,0.3-0.4,0.6-0.4c8,1.7,12.3,11.9,12.5,12.3c0.1,0.3,0,0.5-0.3,0.7C-306.8,296.3-306.8,296.3-306.9,296.3z"/>
	</g>
	<g>
		<polygon class="st0" points="-304.9,317.4 -305.9,317.9 -313.4,298.6 -312.4,298.1 		"/>
	</g>
	<g>
		<path class="st0" d="M-307.1,335.4c-3.3,0-5.6-1.6-8.4-3.7c-0.3-0.2-0.7-0.5-1-0.7c-4.7-3.3-10.1,2.7-11.2,4
			c-0.2,0.2-0.5,0.2-0.7,0.1c-0.2-0.2-0.2-0.5-0.1-0.7c1.1-1.4,7.2-7.9,12.5-4.1c0.4,0.3,0.7,0.5,1.1,0.8c4.2,3,7,5,14.1,1.9
			c1-0.4,1.9-1,2.8-1.4c3.5-1.9,6.7-3.7,12.8-0.5c5.3,2.8,8.9,4.7,13.9,0.9c3.9-2.9,8.5-4.6,15,2.2c0.2,0.2,0.2,0.5,0,0.7
			c-0.2,0.2-0.5,0.2-0.7,0c-5.7-5.9-9.5-5.2-13.7-2.1c-5.6,4.1-9.5,2-15-0.9c-5.6-2.9-8.5-1.3-11.8,0.5c-0.9,0.5-1.9,1-2.9,1.5
			C-303.1,334.9-305.3,335.4-307.1,335.4z"/>
	</g>
</g>
<g id="Layer_7">
</g>
<g id="Layer_6">
</g>
</svg>
