<?xml version="1.0" encoding="utf-8"?>
<!-- Generator: Adobe Illustrator 17.1.0, SVG Export Plug-In . SVG Version: 6.00 Build 0)  -->
<!DOCTYPE svg PUBLIC "-//W3C//DTD SVG 1.1//EN" "http://www.w3.org/Graphics/SVG/1.1/DTD/svg11.dtd">
<svg version="1.1" xmlns="http://www.w3.org/2000/svg" xmlns:xlink="http://www.w3.org/1999/xlink" x="0px" y="0px"
	 viewBox="0 0 200 200" enable-background="new 0 0 200 200" xml:space="preserve">
<g id="Layer_1">
</g>
<g id="Layer_2">
</g>
<g id="Layer_4">
</g>
<g id="Layer_8" display="none">
	<rect x="-2.3" y="-3.3" display="inline" fill="#ED1C24" stroke="#FFFFFF" stroke-miterlimit="10" width="207.7" height="210.3"/>
</g>
<g id="Layer_5">
	
		<polygon fill="none" stroke="#231F20" stroke-width="2" stroke-linecap="round" stroke-linejoin="round" stroke-miterlimit="10" points="
		66.4,141 99,84.5 131.7,141 	"/>
	
		<line fill="none" stroke="#231F20" stroke-width="2.3545" stroke-linecap="round" stroke-linejoin="round" stroke-miterlimit="10" x1="99" y1="84.9" x2="95.2" y2="77.2"/>
	
		<line fill="none" stroke="#231F20" stroke-width="2.3545" stroke-linecap="round" stroke-linejoin="round" stroke-miterlimit="10" x1="99.3" y1="84.9" x2="103.1" y2="77.2"/>
	
		<line fill="none" stroke="#231F20" stroke-width="2" stroke-linecap="round" stroke-linejoin="round" stroke-miterlimit="10" x1="99" y1="105" x2="99" y2="141"/>
	
		<path fill="none" stroke="#231F20" stroke-width="2.3545" stroke-linecap="round" stroke-linejoin="round" stroke-miterlimit="10" d="
		M86,141.4c2.2-1.7,1.3-9.4,0.8-12.1c5-0.7,10.5-0.3,12.1-7"/>
	
		<line fill="none" stroke="#231F20" stroke-width="2" stroke-linejoin="round" stroke-miterlimit="10" x1="65" y1="141" x2="65" y2="129"/>
	
		<line fill="none" stroke="#231F20" stroke-width="2" stroke-linejoin="round" stroke-miterlimit="10" x1="132" y1="141" x2="132" y2="129"/>
	
		<polyline fill="none" stroke="#231F20" stroke-width="1.6211" stroke-linecap="round" stroke-linejoin="round" stroke-miterlimit="10" points="
		47.9,100.9 70.2,64.2 91,98 	"/>
	
		<polyline fill="none" stroke="#231F20" stroke-width="1.6211" stroke-linecap="round" stroke-linejoin="round" stroke-miterlimit="10" points="
		80.8,80.6 96.9,54.5 116.5,85.8 	"/>
	
		<path fill="none" stroke="#231F20" stroke-width="1.6211" stroke-linecap="round" stroke-linejoin="round" stroke-miterlimit="10" d="
		M61.5,78.7c0,0,3.2-3.1,5.5-1.6c2.3,1.5,4.1,1.4,5,0.5c1.8-1.8,4.9-1.1,5.9,0.4"/>
	
		<path fill="none" stroke="#231F20" stroke-width="1.6211" stroke-linecap="round" stroke-linejoin="round" stroke-miterlimit="10" d="
		M86.9,70.6c0,0,3-3.8,5.8-1.9c2.8,1.9,2.8,2.4,5.4,2.4c3.2,0,3.9-5,7.7-1.9"/>
	
		<path fill="none" stroke="#231F20" stroke-width="1.6211" stroke-linecap="round" stroke-linejoin="round" stroke-miterlimit="10" d="
		M32.3,105.4c0.8-0.3,15.7-7.6,26.7-2.7c11.1,4.9,18.4,4.6,23.5,0.8"/>
	
		<line fill="none" stroke="#231F20" stroke-width="2" stroke-linecap="round" stroke-linejoin="round" stroke-miterlimit="10" x1="126" y1="109" x2="126" y2="87"/>
	
		<line fill="none" stroke="#231F20" stroke-width="1.6211" stroke-linecap="round" stroke-linejoin="round" stroke-miterlimit="10" x1="120.6" y1="91.2" x2="126" y2="96.1"/>
	<g>
		<path fill="none" stroke="#231F20" stroke-width="1.8263" stroke-linecap="round" stroke-miterlimit="10" d="M129.5,89
			c0-3.1,0.9-6,2.3-8.3c-1.6-1.2-3.5-1.9-5.5-1.9c-5.8,0-10.5,5.6-10.5,12.5c0,6.9,4.7,12.5,10.5,12.5c3,0,5.7-1.5,7.7-3.9
			C131.3,97.4,129.5,93.5,129.5,89z"/>
		<path fill="none" stroke="#231F20" stroke-width="1.8263" stroke-linecap="round" stroke-miterlimit="10" d="M133.9,99.9
			c1.7,1.6,3.8,2.5,6.1,2.5c5.8,0,10.5-6,10.5-13.4c0-6.5-3.6-11.9-8.4-13.1c-0.7-0.2-1.4-0.3-2.1-0.3c-3.4,0-6.3,2-8.3,5.1"/>
	</g>
	
		<line fill="none" stroke="#231F20" stroke-width="2" stroke-linecap="round" stroke-linejoin="round" stroke-miterlimit="10" x1="140" y1="110" x2="140" y2="84"/>
	
		<line fill="none" stroke="#231F20" stroke-width="1.6211" stroke-linecap="round" stroke-linejoin="round" stroke-miterlimit="10" x1="134.4" y1="88" x2="139.8" y2="92.8"/>
	
		<line fill="none" stroke="#231F20" stroke-width="1.6211" stroke-linecap="round" stroke-linejoin="round" stroke-miterlimit="10" x1="145.4" y1="92" x2="140.1" y2="96.9"/>
</g>
<g id="Layer_6">
</g>
<g id="Layer_7">
</g>
<g id="Layer_3">
</g>
</svg>
